<mxfile host="app.diagrams.net" modified="2023-05-27T22:43:00.775Z" agent="Mozilla/5.0 (Windows NT 10.0; Win64; x64) AppleWebKit/537.36 (KHTML, like Gecko) Chrome/115.0.0.0 Safari/537.36 Edg/115.0.0.0" etag="Ojd0GD_vYlVPRAX-KkQ5" version="21.3.4" type="github">
  <diagram id="C5RBs43oDa-KdzZeNtuy" name="Page-1">
    <mxGraphModel dx="1377" dy="745" grid="1" gridSize="10" guides="1" tooltips="1" connect="1" arrows="1" fold="1" page="1" pageScale="1" pageWidth="827" pageHeight="1169" math="0" shadow="0">
      <root>
        <mxCell id="WIyWlLk6GJQsqaUBKTNV-0" />
        <mxCell id="WIyWlLk6GJQsqaUBKTNV-1" parent="WIyWlLk6GJQsqaUBKTNV-0" />
        <mxCell id="d3bEQIMsQN3zP9F1zdOl-3" value="" style="edgeStyle=orthogonalEdgeStyle;rounded=0;orthogonalLoop=1;jettySize=auto;html=1;" edge="1" parent="WIyWlLk6GJQsqaUBKTNV-1" source="WIyWlLk6GJQsqaUBKTNV-3" target="d3bEQIMsQN3zP9F1zdOl-2">
          <mxGeometry relative="1" as="geometry" />
        </mxCell>
        <mxCell id="WIyWlLk6GJQsqaUBKTNV-3" value="&lt;font style=&quot;font-size: 18px;&quot;&gt;Chạy băng tải không tải&amp;nbsp;&lt;/font&gt;" style="rounded=1;whiteSpace=wrap;html=1;fontSize=12;glass=0;strokeWidth=1;shadow=0;" parent="WIyWlLk6GJQsqaUBKTNV-1" vertex="1">
          <mxGeometry x="129" y="120" width="260" height="80" as="geometry" />
        </mxCell>
        <mxCell id="d3bEQIMsQN3zP9F1zdOl-1" value="" style="edgeStyle=orthogonalEdgeStyle;rounded=0;orthogonalLoop=1;jettySize=auto;html=1;" edge="1" parent="WIyWlLk6GJQsqaUBKTNV-1" source="d3bEQIMsQN3zP9F1zdOl-0" target="WIyWlLk6GJQsqaUBKTNV-3">
          <mxGeometry relative="1" as="geometry" />
        </mxCell>
        <mxCell id="d3bEQIMsQN3zP9F1zdOl-0" value="&lt;font style=&quot;font-size: 18px;&quot;&gt;Bắt đầu&lt;/font&gt;" style="ellipse;whiteSpace=wrap;html=1;" vertex="1" parent="WIyWlLk6GJQsqaUBKTNV-1">
          <mxGeometry x="199" y="10" width="120" height="80" as="geometry" />
        </mxCell>
        <mxCell id="d3bEQIMsQN3zP9F1zdOl-38" value="" style="edgeStyle=orthogonalEdgeStyle;rounded=0;orthogonalLoop=1;jettySize=auto;html=1;" edge="1" parent="WIyWlLk6GJQsqaUBKTNV-1" source="d3bEQIMsQN3zP9F1zdOl-2" target="d3bEQIMsQN3zP9F1zdOl-37">
          <mxGeometry relative="1" as="geometry" />
        </mxCell>
        <mxCell id="d3bEQIMsQN3zP9F1zdOl-2" value="&lt;font style=&quot;font-size: 18px;&quot;&gt;Xác định tốc độ băng tải&lt;br&gt;sai số không tải của loadcell&lt;br&gt;&lt;/font&gt;" style="whiteSpace=wrap;html=1;rounded=1;glass=0;strokeWidth=1;shadow=0;" vertex="1" parent="WIyWlLk6GJQsqaUBKTNV-1">
          <mxGeometry x="139" y="220" width="240" height="90" as="geometry" />
        </mxCell>
        <mxCell id="d3bEQIMsQN3zP9F1zdOl-7" value="" style="edgeStyle=orthogonalEdgeStyle;rounded=0;orthogonalLoop=1;jettySize=auto;html=1;" edge="1" parent="WIyWlLk6GJQsqaUBKTNV-1" source="d3bEQIMsQN3zP9F1zdOl-4" target="d3bEQIMsQN3zP9F1zdOl-6">
          <mxGeometry relative="1" as="geometry" />
        </mxCell>
        <mxCell id="d3bEQIMsQN3zP9F1zdOl-4" value="&lt;font style=&quot;font-size: 18px;&quot;&gt;Xác định lưu lượng tức thời&lt;/font&gt;" style="whiteSpace=wrap;html=1;rounded=1;glass=0;strokeWidth=1;shadow=0;" vertex="1" parent="WIyWlLk6GJQsqaUBKTNV-1">
          <mxGeometry x="139" y="530" width="240" height="65" as="geometry" />
        </mxCell>
        <mxCell id="d3bEQIMsQN3zP9F1zdOl-11" value="" style="edgeStyle=orthogonalEdgeStyle;rounded=0;orthogonalLoop=1;jettySize=auto;html=1;" edge="1" parent="WIyWlLk6GJQsqaUBKTNV-1" source="d3bEQIMsQN3zP9F1zdOl-6" target="d3bEQIMsQN3zP9F1zdOl-8">
          <mxGeometry relative="1" as="geometry" />
        </mxCell>
        <mxCell id="d3bEQIMsQN3zP9F1zdOl-6" value="&lt;font style=&quot;font-size: 18px;&quot;&gt;Tổng khối lượng đo được trên một đơn vị thời gian&lt;/font&gt;" style="whiteSpace=wrap;html=1;rounded=1;glass=0;strokeWidth=1;shadow=0;" vertex="1" parent="WIyWlLk6GJQsqaUBKTNV-1">
          <mxGeometry x="109" y="640" width="300" height="52.5" as="geometry" />
        </mxCell>
        <mxCell id="d3bEQIMsQN3zP9F1zdOl-36" value="" style="edgeStyle=orthogonalEdgeStyle;rounded=0;orthogonalLoop=1;jettySize=auto;html=1;" edge="1" parent="WIyWlLk6GJQsqaUBKTNV-1" source="d3bEQIMsQN3zP9F1zdOl-8" target="d3bEQIMsQN3zP9F1zdOl-28">
          <mxGeometry relative="1" as="geometry" />
        </mxCell>
        <mxCell id="d3bEQIMsQN3zP9F1zdOl-8" value="&lt;font style=&quot;font-size: 18px;&quot;&gt;Khối lượng đo được trên một đơn vị thời gian&lt;/font&gt;" style="whiteSpace=wrap;html=1;rounded=1;glass=0;strokeWidth=1;shadow=0;" vertex="1" parent="WIyWlLk6GJQsqaUBKTNV-1">
          <mxGeometry x="139" y="775" width="240" height="60" as="geometry" />
        </mxCell>
        <mxCell id="d3bEQIMsQN3zP9F1zdOl-23" value="" style="edgeStyle=orthogonalEdgeStyle;rounded=0;orthogonalLoop=1;jettySize=auto;html=1;" edge="1" parent="WIyWlLk6GJQsqaUBKTNV-1" source="d3bEQIMsQN3zP9F1zdOl-20" target="d3bEQIMsQN3zP9F1zdOl-4">
          <mxGeometry relative="1" as="geometry" />
        </mxCell>
        <mxCell id="d3bEQIMsQN3zP9F1zdOl-20" value="&lt;font style=&quot;font-size: 18px;&quot;&gt;Xác định lực tác dụng của tải lên băng tả&lt;/font&gt;i&amp;nbsp;" style="rounded=1;whiteSpace=wrap;html=1;" vertex="1" parent="WIyWlLk6GJQsqaUBKTNV-1">
          <mxGeometry x="124" y="440" width="270" height="60" as="geometry" />
        </mxCell>
        <mxCell id="d3bEQIMsQN3zP9F1zdOl-34" value="" style="edgeStyle=orthogonalEdgeStyle;rounded=0;orthogonalLoop=1;jettySize=auto;html=1;" edge="1" parent="WIyWlLk6GJQsqaUBKTNV-1" source="d3bEQIMsQN3zP9F1zdOl-28" target="d3bEQIMsQN3zP9F1zdOl-33">
          <mxGeometry relative="1" as="geometry" />
        </mxCell>
        <mxCell id="d3bEQIMsQN3zP9F1zdOl-47" style="edgeStyle=orthogonalEdgeStyle;rounded=0;orthogonalLoop=1;jettySize=auto;html=1;entryX=1;entryY=0.389;entryDx=0;entryDy=0;entryPerimeter=0;" edge="1" parent="WIyWlLk6GJQsqaUBKTNV-1" source="d3bEQIMsQN3zP9F1zdOl-28" target="d3bEQIMsQN3zP9F1zdOl-37">
          <mxGeometry relative="1" as="geometry">
            <mxPoint x="709" y="800" as="targetPoint" />
            <Array as="points">
              <mxPoint x="719" y="951" />
              <mxPoint x="719" y="363" />
            </Array>
          </mxGeometry>
        </mxCell>
        <mxCell id="d3bEQIMsQN3zP9F1zdOl-28" value="&lt;span style=&quot;font-size: 18px;&quot;&gt;kết thúc&lt;/span&gt;" style="rhombus;whiteSpace=wrap;html=1;" vertex="1" parent="WIyWlLk6GJQsqaUBKTNV-1">
          <mxGeometry x="183" y="880" width="150" height="142.5" as="geometry" />
        </mxCell>
        <mxCell id="d3bEQIMsQN3zP9F1zdOl-33" value="&lt;span style=&quot;font-size: 18px;&quot;&gt;Dừng cân băng tải&lt;/span&gt;" style="ellipse;whiteSpace=wrap;html=1;" vertex="1" parent="WIyWlLk6GJQsqaUBKTNV-1">
          <mxGeometry x="189" y="1060" width="140" height="100" as="geometry" />
        </mxCell>
        <mxCell id="d3bEQIMsQN3zP9F1zdOl-35" value="&lt;font style=&quot;font-size: 18px;&quot;&gt;1&lt;/font&gt;" style="text;html=1;align=center;verticalAlign=middle;resizable=0;points=[];autosize=1;strokeColor=none;fillColor=none;" vertex="1" parent="WIyWlLk6GJQsqaUBKTNV-1">
          <mxGeometry x="259" y="1000" width="30" height="40" as="geometry" />
        </mxCell>
        <mxCell id="d3bEQIMsQN3zP9F1zdOl-39" value="" style="edgeStyle=orthogonalEdgeStyle;rounded=0;orthogonalLoop=1;jettySize=auto;html=1;" edge="1" parent="WIyWlLk6GJQsqaUBKTNV-1" source="d3bEQIMsQN3zP9F1zdOl-37" target="d3bEQIMsQN3zP9F1zdOl-20">
          <mxGeometry relative="1" as="geometry" />
        </mxCell>
        <mxCell id="d3bEQIMsQN3zP9F1zdOl-37" value="&lt;font style=&quot;font-size: 18px;&quot;&gt;Chạy băng tải có tải&lt;/font&gt;" style="rounded=1;whiteSpace=wrap;html=1;fontSize=12;glass=0;strokeWidth=1;shadow=0;" vertex="1" parent="WIyWlLk6GJQsqaUBKTNV-1">
          <mxGeometry x="133" y="340" width="250" height="60" as="geometry" />
        </mxCell>
        <mxCell id="d3bEQIMsQN3zP9F1zdOl-48" value="&lt;font style=&quot;font-size: 18px;&quot;&gt;0&lt;/font&gt;" style="text;html=1;align=center;verticalAlign=middle;resizable=0;points=[];autosize=1;strokeColor=none;fillColor=none;" vertex="1" parent="WIyWlLk6GJQsqaUBKTNV-1">
          <mxGeometry x="319" y="915" width="30" height="40" as="geometry" />
        </mxCell>
      </root>
    </mxGraphModel>
  </diagram>
</mxfile>
